<?xml version="1.0" encoding="UTF-8" standalone="no"?>
<!DOCTYPE svg PUBLIC "-//W3C//DTD SVG 1.1//EN" "http://www.w3.org/Graphics/SVG/1.1/DTD/svg11.dtd">
<svg width="100%" height="100%" viewBox="0 0 1982 1996" version="1.1" xmlns="http://www.w3.org/2000/svg" xmlns:xlink="http://www.w3.org/1999/xlink" xml:space="preserve" xmlns:serif="http://www.serif.com/" style="fill-rule:evenodd;clip-rule:evenodd;stroke-linejoin:round;stroke-miterlimit:2;">
    <g transform="matrix(1,0,0,1,-16712.824356,-531.111182)">
        <g id="Artboard4" transform="matrix(1.032307,0,0,1.192603,-627.644945,-309.766137)">
            <rect x="16797.7906" y="705.0775" width="1919.8646" height="1673.4106" style="fill:none;"/>
            <g transform="matrix(0.974396,0,0,0.967824,453.294661,48.755278)">
                <path d="M18716.8646,1541.5516L18716.8646,1541.859C18716.8646,2003.5644 18286.7334,2378.4106 17756.9323,2378.4106C17227.1312,2378.4106 16797,2003.5644 16797,1541.859L16797,1541.5516C16797,1079.8462 17227.1312,705 17756.9323,705C18286.7334,705 18716.8646,1079.8462 18716.8646,1541.5516Z" style="fill:rgb(252,250,247);"/>
            </g>
            <g transform="matrix(2.223304,0,0,1.924473,15670.117755,-237.739529)">
                <path d="M662.0174,1073.6918C697.5789,1100.064 724.3111,1112.5465 744.5601,1114.8296C764.7218,1117.1028 781.3915,1116.6292 794.2954,1110.3013L810.0065,1102.0074C809.2448,1114.4159 808.1391,1118.1805 816.7275,1121.2768C840.0415,1129.6819 892.285,1141.1113 957.8509,1130.7329C984.0641,1126.5837 1004.1361,1120.6888 1023.7092,1112.4254C990.0537,1152.0979 934.4971,1166.3804 884.1054,1172.5015C840.9197,1175.5291 802.785,1169.3433 768.061,1157.1982C711.2213,1136.7309 680.9392,1106.4871 662.0174,1073.6918Z" style="fill:rgb(85,40,87);"/>
            </g>
            <g transform="matrix(2.223304,0,0,1.924473,15670.117755,-237.739529)">
                <path d="M799.6992,979.7486L779.9895,996.7705C773.2294,1002.4211 765.7481,1007.0141 757.8406,1010.9819C751.4739,1013.1766 745.1576,1012.9551 738.8674,1011.478C733.0193,1009.1904 730.2054,1005.5175 727.8873,1001.6183C726.3001,995.5479 726.8826,990.4322 729.1198,986.0445C732.8365,979.6498 736.7443,974.4333 740.8282,970.3026C750.5835,959.9823 764.2746,948.8777 781.9476,937.3623C799.3713,926.9164 816.3246,918.173 833.1507,911.3125C847.9019,905.3437 861.7277,900.1054 874.6623,895.5706C889.2534,890.5292 904.1755,886.8585 919.436,884.5896C928.5729,883.4715 937.9138,882.6232 944.8489,882.7496C954.2865,882.8007 959.3787,885.6124 960.6895,890.8264C960.6895,890.8264 962.5404,909.2522 963.3155,917.7234C964.0996,926.2943 963.9174,934.8519 965.8425,943.1482C968.0828,952.8024 973.0318,967.7978 976.7569,975.6484C967.3404,976.4322 963.0678,973.1802 960.6802,968.8793L955.9408,958.6369C953.4197,954.9409 949.4954,955.3717 945.4797,956.9065C939.2506,959.2873 933.9067,968.6525 926.7371,979.4275C923.1444,984.8269 917.6842,989.6511 914.7668,992.4889C908.9815,995.918 903.6436,995.9079 897.954,992.7399C892.9036,988.9808 889.3282,983.7975 887.0505,977.3614L878.1106,953.485C876.0558,949.2002 873.6428,950.0119 871.1597,953.2537C865.625,961.1883 860.756,972.9966 855.6037,987.1269C852.302,994.6808 848.149,1000.6944 843.241,1005.3418C835.3939,1010.315 828.7638,1009.624 822.9054,1005.3418C816.395,997.8552 813.4579,990.2596 811.0471,983.4767C808.5126,977.2932 804.2224,975.9964 799.6992,979.7486ZM738.5987,993.0277C737.8483,997.9333 741.5763,1003.544 752.2743,999.9802C761.5769,996.0863 769.5127,990.3595 775.453,985.3448L795.4805,969.2388C804.3654,964.5878 812.2483,965.1129 817.9589,973.1602L826.362,992.3474C828.3865,996.6517 833.7059,999.6258 838.3466,994.028C843.9089,985.6183 848.365,976.5047 851.8732,966.7878C855.6665,956.5593 860.2346,947.0576 867.9576,940.9482C874.0526,937.1549 879.7658,938.1357 885.114,943.6792C889.1245,950.7906 891.9808,957.4823 893.9373,963.8467C895.9197,970.3657 898.2075,976.4015 902.0603,980.8631C905.1414,984.0363 908.3626,982.9519 911.4438,980.513C917.3603,973.4206 922.6137,966.0606 927.4098,958.5948C933.3004,950.693 940.8316,945.251 952.1383,945.0063C952.8954,944.9379 953.1869,943.8508 953.1026,942.2526C951.8586,930.5345 951.0246,919.2263 950.3783,908.1059C949.8193,905.3066 947.0593,905.1373 946.009,906.7018C943.0446,911.1179 931.0651,932.0549 931.0651,932.0549C926.6265,941.1556 922.0715,949.7217 914.9451,956.7321C912.076,959.0626 909.8499,958.5471 908.4747,954.6033L905.0154,942.3767C902.7117,931.2549 904.1802,923.3293 907.8522,917.735C911.8937,911.0753 916.2438,905.3845 920.9584,900.1322C922.381,898.5474 921.9447,897.5014 920.0555,897.6795C920.0555,897.6795 903.0018,900.3003 896.0041,902.1291C889.9374,903.7145 883.7145,905.7196 878.0693,908.6521C872.3819,911.6067 866.5681,915.2973 862.0801,920.0858C857.3369,925.1463 852.3058,932.4945 849.3866,939.4636C846.459,946.4528 840.3859,959.6839 837.118,961.4519C830.0594,965.2706 827.0578,960.8107 830.1065,950.7776C833.3134,940.2236 839.5269,926.7469 839.5269,926.7469C840.6543,924.2076 839.3504,923.77 835.1237,925.0551C835.1237,925.0551 808.0226,936.3899 795.2224,943.8113C782.0843,951.4287 766.2139,963.175 756.8886,970.8828C750.1536,976.4498 739.349,988.1222 738.5987,993.0277Z" style="fill:rgb(85,40,87);"/>
            </g>
            <g transform="matrix(2.223304,0,0,1.924473,15666.138373,-240.634116)">
                <path d="M726.0445,783.5266C739.1941,783.5266 749.8698,794.2023 749.8698,807.3519C749.8698,820.5014 739.1941,831.1772 726.0445,831.1772C712.895,831.1772 702.2192,820.5014 702.2192,807.3519C702.2192,794.2023 712.895,783.5266 726.0445,783.5266ZM726.0445,796.8962C720.0245,796.8962 715.1371,801.7836 715.1371,807.8036C715.1371,813.8235 720.0245,818.711 726.0445,818.711C732.0645,818.711 736.9519,813.8235 736.9519,807.8036C736.9519,801.7836 732.0645,796.8962 726.0445,796.8962Z" style="fill:rgb(85,40,87);"/>
            </g>
            <g transform="matrix(2.223304,0,0,1.924473,15670.117755,-237.739529)">
                <path d="M823.3222,901.8098C805.8179,894.2138 796.5817,887.7123 789.9947,883.4558C777.9096,875.6462 774.5324,872.186 771.0306,868.5613C767.8907,864.321 769.8826,863.5871 774.2939,864.3914C788.6225,869.2636 803.8979,877.1399 821.5438,884.8964C831.378,888.4797 838.9457,889.359 849.2579,888.8789C862.2842,885.5634 873.8943,883.0346 884.167,881.2489C884.167,881.2489 870.7715,870.3699 865.2642,864.4053C859.301,857.9469 851.1818,846.4691 848.8181,842.4984C847.6365,840.5134 848.3791,836.5801 852.5723,839.7546C860.8126,845.9933 869.2328,854.7006 881.9132,862.2676C886.0863,864.7579 895.8964,868.5613 895.8964,868.5613C907.2293,872.623 925.8865,873.3004 951.0827,870.9563C937.2596,858.9129 920.9065,837.441 915.0457,829.4121C912.1417,825.4338 912.0664,821.1468 915.5694,823.0394C924.5269,828.896 935.3226,838.2285 939.1299,842.7186C940.1002,843.8629 943.1573,843.4765 943.5763,842.0211C944.4761,838.8963 944.5286,823.97 944.5286,823.97C945.0864,821.832 947.0576,822.8227 947.8472,823.6959C952.6216,828.9752 962.2316,847.7372 961.469,866.7592C961.3118,870.6812 963.0644,872.385 964.4031,872.6369C975.406,869.6759 977.0189,863.1125 978.0461,855.3172C978.2631,846.8752 976.2379,838.7133 973.4163,831.0135C970.6885,823.5695 961.1169,809.1185 961.1169,809.1185C961.1169,809.1185 958.1492,804.7212 948.9014,792.3331C938.3918,778.2549 924.4649,780.3348 915.9122,788.22C909.608,796.1344 906.7369,804.1833 904.7372,812.0978C901.5158,823.1417 894.8073,823.2487 887.8807,817.3195L866.0196,799.7693C860.1896,795.5444 854.4907,792.4102 847.0841,791.2441C839.3512,790.0265 834.2514,792.7162 830.2248,796.9983C825.8199,802.2372 822.9815,812.5796 821.2078,821.5258C820.2282,826.594 820.0183,831.4973 820.3773,836.2788L821.0714,841.3432C821.0714,841.3432 823.5566,851.0571 818.2984,848.8616L802.0527,841.9534L778.5208,833.0458C769.8488,830.7723 761.31,831.1603 752.8675,833.4761C744.4505,837.3871 738.8167,843.6323 735.142,851.5207C732.3626,857.2994 731.2512,863.7626 731.5313,869.3501C731.5802,876.3837 734.6835,883.0088 740.8515,887.939C746.829,893.9473 747.4933,900.6857 741.2746,908.2747C736.0263,916.3457 723.3172,929.4454 723.3172,929.4454C713.8138,941.7067 705.8704,954.943 699.9523,969.4452C696.547,982.0688 699.9629,985.8752 707.4631,982.0659C721.6299,969.7111 734.0267,958.3074 745.136,948.0875C753.1583,940.7074 769.0764,929.33 777.2206,924.2994C789.2431,916.8732 821.5271,901.067 823.3222,901.8098Z" style="fill:rgb(85,40,87);"/>
            </g>
            <g transform="matrix(2.223304,0,0,1.924473,15670.117755,-237.739529)">
                <path d="M1076.6499,802.0562C1078.1891,802.8606 1079.6666,802.8249 1081.8473,801.6905C1093.8383,791.1416 1105.0757,784.7958 1115.0297,781.891C1123.7268,779.353 1136.7173,779.935 1141.5712,784.2617C1146.4746,788.6326 1149.1117,799.4674 1141.9661,809.5367C1137.1965,815.2667 1127.6565,812.3872 1119.9201,811.607C1115.4218,811.1534 1109.8139,813.4811 1106.0797,814.248C1102.9325,814.8944 1101.725,815.25 1099.4056,815.9502C1095.065,817.2605 1095.9606,817.9689 1099.5338,819.7636C1103.7846,821.8987 1112.6893,827.1855 1120.5481,832.9206C1133.4004,842.2998 1142.2275,848.1906 1153.0242,859.0783C1159.3746,865.4823 1166.4626,875.4157 1170.1011,885.4266C1172.4599,891.9165 1172.9467,898.7961 1172.2741,903.5567C1171.2266,910.971 1167.9633,913.8739 1161.2844,917.7034C1156.6949,920.3348 1150.0572,920.9231 1143.216,920.6741C1137.3695,920.4613 1128.4915,918.4472 1119.9217,914.3939C1107.3686,908.4566 1093.4599,902.2595 1081.4647,896.0459C1059.6907,884.7669 1028.3627,863.8091 1013.1886,852.3065C1000.2491,842.4979 995.5401,834.0478 993.0121,823.7378C990.1336,811.9985 996.4533,794.3432 1002.802,788.5991C1008.8996,783.082 1012.1002,778.4109 1022.7971,777.5869C1033.8008,776.7394 1038.6384,780.1553 1045.8736,783.6201C1054.6224,787.8098 1070.8874,799.0445 1076.6499,802.0562ZM1115.7307,884.3947L1100.3975,885.4678C1097.341,886.2916 1096.9248,887.4049 1098.5916,888.7465L1107.223,893.8495C1107.223,893.8495 1111.8505,896.6152 1114.0567,897.7992C1116.1557,898.9256 1120.4599,900.9532 1120.4599,900.9532C1121.9285,901.5598 1122.6887,901.2503 1122.7367,900.0198L1120.4383,886.995C1119.9557,884.6722 1118.1463,884.2106 1115.7307,884.3947ZM1010.3704,797.5281C1009.5177,798.8768 1010.2146,799.314 1012.5575,798.783L1025.3701,795.625C1025.3701,795.625 1034.5656,793.3722 1036.0774,792.5774C1036.7683,792.2142 1035.4203,790.9507 1034.8082,790.4664C1032.8835,788.9433 1029.2374,787.5722 1026.0665,787.4778C1022.8956,787.3833 1018.7067,788.4351 1016.173,790.1979C1013.6394,791.9607 1010.3704,797.5281 1010.3704,797.5281ZM1074.0769,858.8996C1068.5271,859.0908 1063.3764,859.7343 1058.5608,860.7577C1055.3245,861.614 1054.8975,862.8222 1056.687,864.3079L1065.9281,869.9906C1065.9281,869.9906 1070.883,873.0698 1073.2433,874.391C1075.489,875.6481 1080.0902,877.9179 1080.0902,877.9179C1081.659,878.5996 1082.4625,878.2725 1082.4966,876.9314L1080.3879,863.031C1079.6368,858.7017 1076.7922,858.7686 1074.0769,858.8996ZM1039.0155,833.5279L1025.0696,835.3406C1022.2823,836.4316 1024.0454,839.4255 1024.9866,840.1323C1024.9866,840.1323 1028.5407,842.9464 1030.3779,844.214C1032.3673,845.5866 1035.0072,847.0637 1036.9783,848.3683C1038.8537,849.6095 1042.4431,851.3256 1042.4431,851.3256C1043.744,852.0151 1044.195,850.7475 1044.1599,849.5369L1042.6824,837.1537C1042.169,833.0259 1041.9536,833.4443 1039.0155,833.5279ZM1127.5799,870.4835C1127.9506,871.8009 1129.0287,872.4109 1131.1204,872.0073L1143.3554,869.4079C1144.3602,868.9331 1144.3585,868.1707 1143.3554,867.1222C1143.3554,867.1222 1140.2088,864.1373 1138.56,862.7302C1136.8271,861.2512 1132.9579,858.2485 1132.9579,858.2485L1125.7872,852.6281C1124.1069,851.6683 1123.3246,852.4182 1123.6808,855.3354L1127.5799,870.4835ZM1023.3258,825.1622C1024.4613,825.306 1025.9731,825.1832 1027.2826,825.019C1029.033,824.7995 1031.7506,824.3122 1033.828,823.8453C1035.8243,823.3966 1039.7467,822.2175 1039.7467,822.2175C1040.8437,821.9672 1041.2433,821.3485 1041.2438,820.5342C1041.2438,820.5342 1040.6177,815.2443 1040.2845,812.7522C1039.9644,810.3582 1039.2447,805.5814 1039.2447,805.5814C1038.9797,803.7841 1037.9894,802.9371 1036.3047,803C1036.3047,803 1030.8191,803.974 1028.3452,804.5058C1026.0356,805.0023 1021.1978,806.3838 1021.1978,806.3838C1021.1978,806.3838 1018.6392,807.3996 1018.5213,808.88C1018.5213,808.88 1018.5682,812.9984 1018.8598,815.031C1019.2072,817.4532 1019.6411,821.1627 1020.6057,823.4128C1021.1713,824.732 1022.263,825.0275 1023.3258,825.1622ZM1086.7876,843.7887C1087.2471,845.6877 1087.8912,846.2309 1090.3543,845.8216L1107.2281,843.5298C1108.4112,843.0483 1108.4092,842.2751 1107.2281,841.2119C1107.2281,841.2119 1103.5228,838.185 1101.5814,836.758C1099.5408,835.2582 1094.9847,832.2132 1094.9847,832.2132L1086.541,826.5137C1084.5625,825.5404 1084.2724,826.7311 1084.6917,829.6893C1084.6917,829.6893 1086.1174,841.0191 1086.7876,843.7887ZM1095.9259,876.5392C1097.2145,876.6944 1098.9302,876.5619 1100.4163,876.3848C1102.4027,876.148 1105.4867,875.6223 1107.8441,875.1186C1110.1097,874.6346 1114.8592,873.7069 1114.8592,873.7069C1116.1041,873.4368 1116.6953,872.4711 1116.6959,871.5927C1116.6959,871.5927 1115.8247,865.7714 1115.4466,863.083C1115.0833,860.5005 1113.9912,855.4164 1113.9912,855.4164C1113.6905,853.4775 1112.5666,852.5638 1110.6548,852.6316C1110.6548,852.6316 1104.4296,853.6823 1101.6222,854.2561C1099.0011,854.7917 1094.9639,855.258 1092.9733,855.9234C1091.4841,856.4212 1090.1953,856.9789 1089.9,858.8594C1089.6438,860.4919 1090.5269,863.4174 1090.8578,865.6102C1091.252,868.2231 1091.7444,872.2248 1092.8391,874.6521C1093.481,876.0752 1094.7198,876.394 1095.9259,876.5392ZM1057.3313,850.4218C1058.6083,850.5747 1060.3086,850.4442 1061.7814,850.2696C1063.7499,850.0364 1066.8063,849.5184 1069.1426,849.0221C1071.3878,848.5452 1075.7991,847.292 1075.7991,847.292C1077.0329,847.0258 1077.4823,846.3683 1077.4829,845.5028C1077.4829,845.5028 1076.7787,839.8801 1076.4039,837.2312C1076.044,834.6867 1075.2346,829.6094 1075.2346,829.6094C1074.9365,827.699 1073.8227,826.7988 1071.9281,826.8655C1071.9281,826.8655 1065.7587,827.9008 1062.9764,828.4661C1060.3789,828.9939 1054.938,830.4622 1054.938,830.4622C1054.938,830.4622 1052.0605,831.5419 1051.9279,833.1154C1051.9279,833.1154 1051.9807,837.4929 1052.3086,839.6534C1052.6993,842.2279 1053.1873,846.1708 1054.2721,848.5624C1054.9082,849.9646 1056.136,850.2787 1057.3313,850.4218ZM1008.9402,830.3793C1009.8994,830.987 1010.9802,831.0719 1010.9613,830.4255C1010.8842,827.7957 1009.2177,817.1489 1008.5597,814.3072C1008.3735,813.5031 1007.6808,812.27 1007.0013,812.8109C1006.2319,813.4234 1004.7907,816.4376 1004.5888,818.3095C1004.3579,820.4491 1004.8911,823.1017 1005.6393,825.1898C1006.2893,827.0041 1007.914,829.5553 1008.9402,830.3793ZM1132.8383,882.604C1131.4989,883.2154 1130.1161,884.2387 1130.6974,887.0803C1131.7427,892.7935 1132.926,900.5582 1134.5848,904.2075C1135.6491,906.5488 1137.9395,908.066 1140.6503,908.9761C1144.3456,909.6107 1148.8902,909.2904 1151.6422,908.239C1154.1303,907.2884 1156.1907,904.8525 1157.1627,902.6676C1158.4921,899.5318 1158.2762,895.5433 1157.3868,891.1833C1156.4353,887.3023 1154.7773,884.0448 1152.5256,881.3112C1151.8543,880.003 1150.6521,879.4914 1149.0997,879.5049C1149.0997,879.5049 1135.828,881.2392 1132.8383,882.604ZM1051.0079,818.4099C1051.5447,820.222 1053.195,820.1891 1057.1295,819.5486L1071.2241,816.9058C1072.3935,816.4995 1072.4855,815.8941 1071.3181,814.9969C1071.3181,814.9969 1067.8908,812.6307 1065.9718,811.4266C1063.9549,810.1611 1059.4517,807.5916 1059.4517,807.5916L1051.3291,803.4754C1049.3735,802.6541 1049.1713,805.4043 1049.1713,805.4043C1049.1713,805.4043 1050.1045,815.361 1051.0079,818.4099Z" style="fill:rgb(85,40,87);"/>
            </g>
            <g transform="matrix(2.223304,0,0,1.924473,15670.117755,-237.739529)">
                <path d="M1022.6846,1036.7278C1018.1869,1034.436 1018.5526,1024.7372 1015.358,1016.8843C1008.4842,999.9876 999.8688,978.9282 994.638,969.1196C965.6579,914.7776 984.366,868.6513 1001.0294,858.0609C1002.3864,857.1985 1003.7665,857.0179 1004.5599,858.0427C1019.9319,877.9 1023.658,883.8344 1024.9015,889.8666C1026.6602,898.3979 1025.8793,907.732 1024.0571,915.3881C1022.2592,921.4684 1031.4245,913.3321 1038.854,907.9405C1069.0994,885.9911 1086.8551,903.4432 1087.5801,938.7591C1086.9754,947.5628 1096.0193,929.8725 1109.3476,927.2206C1130.3902,923.0339 1153.5241,932.8674 1146.473,962.3242C1134.5357,1001.0284 1104.9518,1008.0372 1081.0795,1012.9043C1069.7838,1015.2072 1064.8995,1012.3386 1049.9235,1019.3583C1037.1913,1025.3261 1029.6385,1040.2709 1022.6846,1036.7278Z" style="fill:rgb(85,40,87);"/>
            </g>
            <g transform="matrix(2.4469,0,0,2.118015,15432.330698,-429.320419)">
                <ellipse cx="1162.5834" cy="1010.5304" rx="14.8181" ry="15.5576" style="fill:rgb(85,40,87);"/>
            </g>
            <g transform="matrix(2.210106,0,0,1.913049,14830.626028,-620.101592)">
                <ellipse cx="1162.5834" cy="1010.5304" rx="14.8181" ry="15.5576" style="fill:rgb(85,40,87);"/>
            </g>
            <g transform="matrix(2.223304,0,0,1.924473,15670.117755,-237.739529)">
                <path d="M739.7943,1164.3842L661.1771,1180.4307L716.969,1251.1158C717.2226,1251.8763 721.7132,1254.6249 723.8635,1250.0085C727.1426,1242.9689 726.9895,1220.5157 726.9895,1220.5157C727.0755,1215.6581 729.1065,1213.2876 733.0766,1213.5092C782.5929,1230.4125 840.899,1236.9913 908.7971,1232.3033C954.3198,1229.9168 996.5372,1222.0696 1035.349,1208.5957C1122.1016,1176.052 1181.4234,1132.3551 1216.3176,1078.726C1253.7667,1025.7197 1271.7711,973.321 1272.7484,921.4544C1274.6443,836.7272 1248.6512,775.8697 1210.6411,723.4458C1172.631,671.0219 1104.4825,625.6658 1044.6878,606.9112C984.8932,588.1566 907.024,595.5582 851.8732,610.9181C799.2659,625.5696 749.264,660.3924 713.783,699.0703C678.302,737.7482 651.1063,785.6955 638.9871,842.9856C628.6111,884.7377 630.2854,918.7432 639.8553,947.673C633.5031,885.5214 651.6369,817.0309 688.7397,766.7873C726.0931,716.2044 794.94,662.6996 863.9757,644.1755C924.7531,629.1039 984.0253,625.6081 1038.9446,645.244C1094.7298,665.1896 1151.5747,695.4909 1198.6871,763.8489C1231.0045,810.74 1244.4671,869.7158 1239.5577,929.7354C1236.5131,979.2938 1219.3621,1024.7378 1189.6048,1066.5049C1148.0609,1123.8891 1093.9784,1162.7639 1029.0608,1185.644C988.4075,1199.6376 949.6245,1205.9834 908.9626,1209.5535C868.6914,1213.0893 801.0518,1205.6385 757.675,1191.9388C748.3443,1188.9919 742.2114,1188.7893 738.5058,1185.0999C736.7239,1183.3258 736.7516,1181.3664 736.9029,1178.8071C737.1176,1175.1748 739.7943,1164.3842 739.7943,1164.3842Z" style="fill:rgb(85,40,87);"/>
            </g>
        </g>
    </g>
</svg>
